<?xml version="1.0" encoding="UTF-8"?>
<svg version="1.1" xmlns="http://www.w3.org/2000/svg" width="679" height="394">
<path d="M0 0 C224.07 0 448.14 0 679 0 C679 130.02 679 260.04 679 394 C454.93 394 230.86 394 0 394 C0 263.98 0 133.96 0 0 Z " fill="#FBFBFB" transform="translate(0,0)"/>
<path d="M0 0 C0.66 0 1.32 0 2 0 C-0.15626134 10.7813067 -3.87926014 20.83391604 -8 31 C-7.44352783 30.94465088 -6.88705566 30.88930176 -6.3137207 30.83227539 C52.8841568 25.01598255 52.8841568 25.01598255 80 30 C80.79664063 30.13277344 81.59328125 30.26554687 82.4140625 30.40234375 C87.82876075 31.49991772 92.33187458 34.16886838 97 37 C97 37.66 97 38.32 97 39 C95.54107996 38.88204476 94.08288823 38.75508849 92.625 38.625 C91.81289063 38.55539063 91.00078125 38.48578125 90.1640625 38.4140625 C87.47695184 38.06241592 84.89609371 37.58401073 82.24609375 37.03125 C51.96961229 30.85570191 19.59110471 33.75850037 -11 36 C-11.17672745 36.60499832 -11.3534549 37.20999664 -11.53553772 37.83332825 C-13.3496513 43.97107364 -15.33351589 50.02905478 -17.43359375 56.07421875 C-18.08937921 57.97845141 -18.74497207 59.8827504 -19.40039062 61.78710938 C-20.41616745 64.73181144 -21.43349347 67.67594984 -22.4543457 70.61889648 C-23.45212804 73.49823882 -24.4432499 76.37981082 -25.43359375 79.26171875 C-25.73164413 80.11537521 -26.02969452 80.96903168 -26.33677673 81.84855652 C-28.96328244 89.515701 -30.89375674 97.10158778 -33 105 C-17.49 105 -1.98 105 14 105 C4.99789592 111.75157806 -7.30034478 110.41506729 -18.125 110.625 C-19.76564391 110.66326008 -21.40626946 110.70231621 -23.046875 110.7421875 C-27.03109768 110.8373032 -31.01541389 110.92164603 -35 111 C-36.2763072 115.08164222 -37.54500803 119.16561258 -38.8125 123.25 C-39.16892578 124.38953125 -39.52535156 125.5290625 -39.89257812 126.703125 C-41.91449344 133.23261299 -43.74529062 139.76706288 -45.35864258 146.40917969 C-46.11705062 149.47283638 -47.01250455 152.48284745 -47.9375 155.5 C-55.12082446 178.76964227 -55.12082446 178.76964227 -52 202 C-55.19251457 201.72635589 -57.07542619 200.95306815 -59.8125 199.25 C-64.21629268 192.7072223 -62.46741507 185.13815622 -61.04296875 177.7734375 C-60.01354139 172.80549888 -58.86845351 167.86765811 -57.69238281 162.93261719 C-57.04774854 160.202241 -56.43584169 157.46705747 -55.8359375 154.7265625 C-52.93237659 141.69470525 -48.9955654 129.07509734 -44.76855469 116.41577148 C-44.0919237 114.2889406 -43.51127086 112.17163876 -43 110 C-46.98000739 110.28083546 -50.95877019 110.57665093 -54.9375 110.875 C-56.05447266 110.95363281 -57.17144531 111.03226562 -58.32226562 111.11328125 C-71.18097583 111.81841633 -71.18097583 111.81841633 -82 118 C-82.66 118 -83.32 118 -84 118 C-83.72884731 114.74616778 -83.26471536 113.28126007 -81 110.875 C-71.50301759 104.93938599 -60.86845256 104.8400587 -50 104.9375 C-49.03449219 104.94201172 -48.06898438 104.94652344 -47.07421875 104.95117188 C-44.71607911 104.96284583 -42.35807398 104.97921979 -40 105 C-39.75781738 104.0416626 -39.75781738 104.0416626 -39.51074219 103.06396484 C-37.50966247 95.41688387 -34.96251603 88.04539285 -32.25 80.625 C-28.77145085 71.01427474 -25.39096032 61.38569722 -22.24511719 51.66064453 C-20.71938031 46.98409704 -19.00887547 42.49148575 -17 38 C-52.08015095 41.72763497 -52.08015095 41.72763497 -83 57 C-83.33 57.99 -83.66 58.98 -84 60 C-84.66 60 -85.32 60 -86 60 C-85.92987835 57.05489089 -85.63183888 54.81851855 -83.796875 52.44140625 C-75.79481948 44.96375728 -64.13628674 42.18539743 -53.8125 39.4375 C-52.70551758 39.13070312 -51.59853516 38.82390625 -50.45800781 38.5078125 C-43.48677113 36.65512308 -36.72773618 35.56508031 -29.55737305 34.85302734 C-19.95562083 34.18637195 -19.95562083 34.18637195 -12.421875 29.01953125 C-11.15542391 25.71771234 -10.33182893 22.65326481 -9.61230469 19.21289062 C-8.45343565 15.02469727 -6.23117293 11.3388521 -4.125 7.5625 C-3.33560545 6.10564862 -2.54651345 4.64863324 -1.7578125 3.19140625 C-0.88769531 1.61166016 -0.88769531 1.61166016 0 0 Z " fill="#1D1D1D" transform="translate(314,55)"/>
<path d="M0 0 C5.68715332 4.32718188 9.23055708 9.62736588 10.234375 16.73046875 C10.59843348 23.90039818 8.98888495 29.30021101 4.875 35.1875 C0.6938065 39.78776528 -3.66769273 42.77739183 -9.95703125 43.5234375 C-17.61524965 43.62380733 -23.09255744 42.89844942 -28.83984375 37.609375 C-34.44985906 31.51928503 -36.79667783 25.30897658 -36.53515625 17.03125 C-35.47594979 9.68741856 -31.73726219 3.77054477 -25.87109375 -0.6953125 C-17.67251527 -5.94093542 -8.08861816 -4.69139853 0 0 Z " fill="#F8F8F8" transform="translate(332.125,284.8125)"/>
<path d="M0 0 C20.53846154 0 20.53846154 0 25.875 4.625 C27.64346147 8.35841865 27.68431704 11.95172448 27 16 C25 19.0625 25 19.0625 23 21 C23.5053125 21.30550781 24.010625 21.61101562 24.53125 21.92578125 C27.7072774 24.16286404 29.70068234 25.76805231 30.640625 29.63671875 C30.81757208 34.26894054 30.62678801 37.90369958 27.6875 41.625 C19.67108499 48.70927373 12.43096924 45 0 45 C0 30.15 0 15.3 0 0 Z " fill="#181818" transform="translate(532,282)"/>
<path d="M0 0 C20 0 20 0 26 3 C28.99163411 5.99163411 29.43170826 8.26165891 29.4375 12.4375 C29.32922114 16.12390296 29.0949394 17.82418629 27.3125 21.125 C24.76172165 23.19319866 23.17923452 23.48330849 20 24 C20.29245605 24.4940332 20.58491211 24.98806641 20.88623047 25.49707031 C22.21721231 27.74722684 23.54612431 29.99859905 24.875 32.25 C25.33519531 33.02730469 25.79539062 33.80460937 26.26953125 34.60546875 C26.71425781 35.35957031 27.15898437 36.11367188 27.6171875 36.890625 C28.02565918 37.58188477 28.43413086 38.27314453 28.85498047 38.98535156 C29.97679042 40.95916302 31.0040988 42.96020237 32 45 C29.36 45 26.72 45 24 45 C23.73372803 44.4652002 23.46745605 43.93040039 23.19311523 43.37939453 C21.96536114 40.94819306 20.70216294 38.53719358 19.4375 36.125 C19.01919922 35.28324219 18.60089844 34.44148438 18.16992188 33.57421875 C17.74130859 32.76855469 17.31269531 31.96289062 16.87109375 31.1328125 C16.48880615 30.38918457 16.10651855 29.64555664 15.71264648 28.87939453 C13.59021569 26.21959024 13.59021569 26.21959024 7 25 C7 31.6 7 38.2 7 45 C4.69 45 2.38 45 0 45 C0 30.15 0 15.3 0 0 Z " fill="#1C1C1C" transform="translate(363,282)"/>
<path d="M0 0 C2.05078125 0.03255208 4.1015625 0.06510417 6.15234375 0.09765625 C9.76173279 8.53013225 13.07540521 17.04517726 16.22924805 25.65551758 C16.97616731 27.69101512 17.73111862 29.72342518 18.48632812 31.75585938 C18.96532956 33.0584152 19.44386332 34.36114313 19.921875 35.6640625 C20.35089111 36.82881104 20.77990723 37.99355957 21.22192383 39.19360352 C22.15234375 42.09765625 22.15234375 42.09765625 22.15234375 45.09765625 C20.17234375 45.09765625 18.19234375 45.09765625 16.15234375 45.09765625 C13.15234375 38.47265625 13.15234375 38.47265625 13.15234375 35.09765625 C5.89234375 35.09765625 -1.36765625 35.09765625 -8.84765625 35.09765625 C-9.50765625 38.06765625 -10.16765625 41.03765625 -10.84765625 44.09765625 C-11.84765625 45.09765625 -11.84765625 45.09765625 -14.91015625 45.16015625 C-15.87953125 45.13953125 -16.84890625 45.11890625 -17.84765625 45.09765625 C-16.64544139 39.04872082 -15.02485455 33.36236596 -12.84375 27.59765625 C-12.41872948 26.45502319 -12.41872948 26.45502319 -11.98512268 25.28930664 C-11.39205384 23.6984968 -10.79615539 22.10873915 -10.19750977 20.52001953 C-9.27787734 18.07833023 -8.3677732 15.63324342 -7.45898438 13.1875 C-6.8794541 11.63651394 -6.29939541 10.08572519 -5.71875 8.53515625 C-5.44582626 7.80296875 -5.17290253 7.07078125 -4.89170837 6.31640625 C-2.5563442 0.13511333 -2.5563442 0.13511333 0 0 Z " fill="#1A1A1A" transform="translate(202.84765625,281.90234375)"/>
<path d="M0 0 C5.68715332 4.32718188 9.23055708 9.62736588 10.234375 16.73046875 C10.59843348 23.90039818 8.98888495 29.30021101 4.875 35.1875 C0.6938065 39.78776528 -3.66769273 42.77739183 -9.95703125 43.5234375 C-17.61524965 43.62380733 -23.09255744 42.89844942 -28.83984375 37.609375 C-34.44985906 31.51928503 -36.79667783 25.30897658 -36.53515625 17.03125 C-35.47594979 9.68741856 -31.73726219 3.77054477 -25.87109375 -0.6953125 C-17.67251527 -5.94093542 -8.08861816 -4.69139853 0 0 Z M-25.9375 8.25 C-29.9986243 13.70350977 -29.59613722 18.53050561 -29.125 25.1875 C-27.38884225 30.49242646 -24.4797618 32.94459228 -20.125 36.1875 C-16.66409109 37.91795446 -12.91589112 37.53329074 -9.125 37.1875 C-3.85177847 35.36215409 -1.32808914 32.58030797 1.875 28.1875 C3.51037738 23.28136785 3.37613348 18.30718802 2.875 13.1875 C1.25992402 9.63428747 1.25992402 9.63428747 -1.125 7.1875 C-1.599375 6.61 -2.07375 6.0325 -2.5625 5.4375 C-6.39270836 2.37333331 -10.28131577 1.78612757 -15.140625 1.94140625 C-19.86943349 2.52785297 -22.92672307 4.7316921 -25.9375 8.25 Z " fill="#1C1C1C" transform="translate(332.125,284.8125)"/>
<path d="M0 0 C2.31 0 4.62 0 7 0 C7 6.6 7 13.2 7 20 C14.26 20 21.52 20 29 20 C29 13.4 29 6.8 29 0 C31.31 0 33.62 0 36 0 C36 14.85 36 29.7 36 45 C33.69 45 31.38 45 29 45 C29 38.4 29 31.8 29 25 C21.74 25 14.48 25 7 25 C7 31.6 7 38.2 7 45 C4.69 45 2.38 45 0 45 C0 30.15 0 15.3 0 0 Z " fill="#202020" transform="translate(415,282)"/>
<path d="M0 0 C2.31 0 4.62 0 7 0 C7.01401855 1.50566528 7.01401855 1.50566528 7.02832031 3.04174805 C7.06830231 6.7788471 7.13408256 10.51512998 7.20751953 14.25170898 C7.23568186 15.86651089 7.25692 17.48144943 7.27099609 19.09643555 C7.29249258 21.42307237 7.33917211 23.74807477 7.390625 26.07421875 C7.39185364 26.79212082 7.39308228 27.51002289 7.39434814 28.24967957 C7.53429682 33.07815895 8.53893594 35.62511019 12 39 C14.16271428 39.77996887 14.16271428 39.77996887 16.4375 39.625 C17.54931641 39.64433594 17.54931641 39.64433594 18.68359375 39.6640625 C22.22482965 38.6488684 23.69383681 36.83905865 26 34 C26.50722152 31.16267681 26.72254511 28.90626219 26.70703125 26.07421875 C26.72215256 25.32662796 26.73727386 24.57903717 26.75285339 23.80879211 C26.79564081 21.43471913 26.8045588 19.06191969 26.8125 16.6875 C26.83565158 15.07223198 26.86101831 13.45699409 26.88867188 11.84179688 C26.95143457 7.89441914 26.98383984 3.94783246 27 0 C29.31 0 31.62 0 34 0 C34.07445407 4.73222455 34.1287447 9.46410411 34.16479492 14.19677734 C34.17983176 15.80491072 34.20026672 17.41300344 34.22631836 19.02099609 C34.26292822 21.33962064 34.27977722 23.65770049 34.29296875 25.9765625 C34.30845261 26.68930328 34.32393646 27.40204407 34.33988953 28.13638306 C34.34168531 33.52749997 33.15315324 37.58272663 29.53515625 41.64453125 C23.93698465 46.08446045 18.99822319 46.68156608 12 46 C7.046711 44.13083434 3.35624115 41.64216538 0.90283203 36.86254883 C-0.24148171 33.23435018 -0.24939596 29.83555176 -0.1953125 26.07421875 C-0.1924826 25.32662796 -0.18965271 24.57903717 -0.18673706 23.80879211 C-0.17559469 21.4348612 -0.15050162 19.06131575 -0.125 16.6875 C-0.11496249 15.0722711 -0.10583799 13.45703624 -0.09765625 11.84179688 C-0.07567489 7.89438406 -0.04118657 3.94725726 0 0 Z " fill="#212121" transform="translate(474,282)"/>
<path d="M0 0 C2.31 0 4.62 0 7 0 C9.03195493 5.49271967 11.05806144 10.98752949 13.07617188 16.48535156 C13.65684269 18.06593015 14.2386988 19.6460743 14.82226562 21.22558594 C15.53206746 23.1486537 16.23502313 25.07424444 16.9375 27 C17.33839844 28.093125 17.73929687 29.18625 18.15234375 30.3125 C19 33 19 33 19 36 C19.66 36 20.32 36 21 36 C21.23589844 34.78183594 21.47179687 33.56367188 21.71484375 32.30859375 C23.11012315 26.03290974 25.34439924 20.08606273 27.5625 14.0625 C27.97435547 12.92748047 28.38621094 11.79246094 28.81054688 10.62304688 C31.82410714 2.35178571 31.82410714 2.35178571 33 0 C35.31 0 37.62 0 40 0 C34.81101942 15.05388338 29.48763732 30.05236411 24 45 C21.36 45 18.72 45 16 45 C13.71911999 38.75284795 11.44071471 32.50479753 9.1640625 26.25610352 C8.38859686 24.12861482 7.61255599 22.00133571 6.8359375 19.87426758 C5.72245926 16.82427457 4.61102346 13.77354418 3.5 10.72265625 C3.15001953 9.76537125 2.80003906 8.80808624 2.43945312 7.8217926 C2.11912109 6.94095505 1.79878906 6.06011749 1.46875 5.15258789 C1.18451172 4.37315323 0.90027344 3.59371857 0.60742188 2.79066467 C0 1 0 1 0 0 Z " fill="#1A1A1A" transform="translate(240,282)"/>
<path d="M0 0 C8.25 0 16.5 0 25 0 C25 1.65 25 3.3 25 5 C19.06 5.33 13.12 5.66 7 6 C6.67 10.62 6.34 15.24 6 20 C11.28 20 16.56 20 22 20 C22 21.65 22 23.3 22 25 C17.05 25 12.1 25 7 25 C7 31.6 7 38.2 7 45 C4.69 45 2.38 45 0 45 C0 30.15 0 15.3 0 0 Z " fill="#151515" transform="translate(103,282)"/>
<path d="M0 0 C2.31 0 4.62 0 7 0 C7 13.2 7 26.4 7 40 C11.95 40 16.9 40 22 40 C22 41.65 22 43.3 22 45 C14.74 45 7.48 45 0 45 C0 30.15 0 15.3 0 0 Z " fill="#1F1F1F" transform="translate(148,282)"/>
<path d="M0 0 C13.33537848 -0.49390291 13.33537848 -0.49390291 16.41796875 1.796875 C18.74017125 5.030757 18.62310216 7.12291992 18 11 C15.24102446 13.88159667 13.66290537 14.92228542 9.66796875 15.390625 C6.4453125 15.26041667 3.22265625 15.13020833 0 15 C0 10.05 0 5.1 0 0 Z " fill="#F6F6F6" transform="translate(538,307)"/>
<path d="M0 0 C10.01535761 -0.48266784 10.01535761 -0.48266784 14.1875 1.5625 C16.66760547 4.89781425 16.59059604 6.93965219 16 11 C14.45737187 13.10358381 13.31891683 13.84054159 11 15 C7.32984725 15.1377685 3.67388652 15.04271961 0 15 C0 10.05 0 5.1 0 0 Z " fill="#F6F6F6" transform="translate(370,287)"/>
<path d="M0 0 C0.66 0 1.32 0 2 0 C3.17171756 3.28989086 4.33651088 6.58219102 5.5 9.875 C5.83386719 10.81214844 6.16773438 11.74929688 6.51171875 12.71484375 C6.98544922 14.05869141 6.98544922 14.05869141 7.46875 15.4296875 C7.76201172 16.25710449 8.05527344 17.08452148 8.35742188 17.93701172 C9 20 9 20 9 22 C3.72 22 -1.56 22 -7 22 C-5.04910592 14.48905779 -2.76288395 7.25081726 0 0 Z " fill="#F0F0F0" transform="translate(204,289)"/>
<path d="M0 0 C9.6092603 -0.43026539 9.6092603 -0.43026539 14 3 C15 4 15 4 15.25 6.8125 C14.96749607 10.41442515 14.56221338 11.51267386 12 14 C9.08203125 14.390625 9.08203125 14.390625 5.8125 14.25 C2.9353125 14.12625 2.9353125 14.12625 0 14 C0 9.38 0 4.76 0 0 Z " fill="#F7F7F7" transform="translate(538,287)"/>
<path d="M0 0 C0.66 0 1.32 0 2 0 C1.71640113 1.4391134 1.42278601 2.87625518 1.125 4.3125 C0.96257812 5.11300781 0.80015625 5.91351563 0.6328125 6.73828125 C0 9 0 9 -2 12 C-2.99 12 -3.98 12 -5 12 C-3.68938409 7.76570244 -2.05643741 3.92592596 0 0 Z " fill="#2F2F2F" transform="translate(314,55)"/>
</svg>
